HIERARCHY
ROOT Hips
{
  OFFSET 13.6774 106.653 -34.4427
  CHANNELS 6 Xposition Yposition Zposition Zrotation Xrotation Yrotation
  JOINT ToSpine
  {
    OFFSET -2.69724 7.43032 -0.144315
    CHANNELS 3 Zrotation Xrotation Yrotation
    JOINT Spine
    {
      OFFSET -0.0310711 10.7595 1.96963
      CHANNELS 3 Zrotation Xrotation Yrotation
      JOINT Spine1
      {
        OFFSET 19.9056 3.91189 0.764692
        CHANNELS 3 Zrotation Xrotation Yrotation
        JOINT Neck
        {
          OFFSET 25.9749 7.03908 -0.130764
          CHANNELS 3 Zrotation Xrotation Yrotation
          JOINT Head
          {
            OFFSET 9.52751 0.295786 -0.907742
            CHANNELS 3 Zrotation Xrotation Yrotation
            End Site
            {
              OFFSET 16.4037 0.713936 2.7358
            }
          }
        }
        JOINT LeftShoulder
        {
          OFFSET 17.7449 4.33886 11.7777
          CHANNELS 3 Zrotation Xrotation Yrotation
          JOINT LeftArm
          {
            OFFSET 0.911315 1.27913 9.80584
            CHANNELS 3 Zrotation Xrotation Yrotation
            JOINT LeftForeArm
            {
              OFFSET 28.6126 1.18197 -3.53199
              CHANNELS 3 Zrotation Xrotation Yrotation
              JOINT LeftHand
              {
                OFFSET 27.5088 0.0218783 0.327423
                CHANNELS 3 Zrotation Xrotation Yrotation
                End Site
                {
                  OFFSET 18.6038 -0.000155887 0.382096
                }
              }
            }
          }
        }
        JOINT RightShoulder
        {
          OFFSET 17.1009 2.89543 -12.2328
          CHANNELS 3 Zrotation Xrotation Yrotation
          JOINT RightArm
          {
            OFFSET 1.4228 0.178766 -10.211
            CHANNELS 3 Zrotation Xrotation Yrotation
            JOINT RightForeArm
            {
              OFFSET 28.733 1.87905 2.64907
              CHANNELS 3 Zrotation Xrotation Yrotation
              JOINT RightHand
              {
                OFFSET 27.4588 0.290562 -0.101845
                CHANNELS 3 Zrotation Xrotation Yrotation
                End Site
                {
                  OFFSET 17.8396 -0.255518 -0.000602873
                }
              }
            }
          }
        }
      }
    }
  }
  JOINT LeftUpLeg
  {
    OFFSET -5.61296 -2.22332 -10.2353
    CHANNELS 3 Zrotation Xrotation Yrotation
    JOINT LeftLeg
    {
      OFFSET 2.56703 -44.7417 -7.93097
      CHANNELS 3 Zrotation Xrotation Yrotation
      JOINT LeftFoot
      {
        OFFSET 3.16933 -46.5642 -3.96578
        CHANNELS 3 Zrotation Xrotation Yrotation
        JOINT LeftToeBase
        {
          OFFSET 0.346054 -6.02161 12.8035
          CHANNELS 3 Zrotation Xrotation Yrotation
          End Site
          {
            OFFSET 0.134235 -1.35082 5.13018
          }
        }
      }
    }
  }
  JOINT RightUpLeg
  {
    OFFSET -5.7928 -1.72406 10.6446
    CHANNELS 3 Zrotation Xrotation Yrotation
    JOINT RightLeg
    {
      OFFSET -2.57161 -44.7178 -7.85259
      CHANNELS 3 Zrotation Xrotation Yrotation
      JOINT RightFoot
      {
        OFFSET -3.10148 -46.5936 -4.03391
        CHANNELS 3 Zrotation Xrotation Yrotation
        JOINT RightToeBase
        {
          OFFSET -0.0828122 -6.13587 12.8035
          CHANNELS 3 Zrotation Xrotation Yrotation
          End Site
          {
            OFFSET -0.131328 -1.35082 5.13018
          }
        }
      }
    }
  }
}
MOTION
Frames: 8
Frame Time: 0.03333333333333333
0.0000 93.1000 0.0000 -74.1594 -8.9112 168.7643 -70.9944 -0.3728 87.9953 104.0108 67.1303 -12.0148 1.1573 17.2677 0.3953 -143.0898 8.7257 -157.4685 -144.9569 43.0592 -175.4312 -0.7243 -16.3339 -26.6881 -132.1821 -6.7166 -65.7480 4.1369 0.6139 -72.9047 -0.5434 -0.2305 0.5038 -1.1586 5.9204 22.6652 -51.9563 -20.4756 140.0201 7.8237 2.4166 106.5555 -0.0275 0.3813 0.0355 -49.8948 6.7444 122.3241 -4.9784 48.1212 -13.1697 -15.6018 6.1689 3.5668 5.9170 -11.5887 -16.8443 -31.0664 -13.6909 76.6857 5.8112 59.8148 9.1009 -9.1613 14.3943 0.1145 1.0215 -28.1153 -9.2692 
0.0000 93.1000 0.0000 -72.1745 -6.9925 173.0242 -70.9955 -0.5084 88.0033 101.9508 67.7499 -11.6451 1.1707 16.9281 1.6910 -145.0491 7.2480 -160.5177 -144.1770 41.8812 -176.6558 -1.1654 -15.9921 -26.4051 -137.0867 -5.7936 -66.6550 6.7689 0.9167 -76.1220 -0.6634 -0.1684 0.6337 -1.3253 5.6415 23.0375 -51.0164 -21.2514 139.7511 9.4930 3.1589 108.9307 0.1524 0.4327 0.2972 -51.0533 5.0276 120.7832 -2.4789 40.8866 -2.5241 -9.5852 -2.5186 1.8152 6.0041 -10.6263 -16.1990 -25.8849 -10.3586 85.0717 7.7988 64.1976 15.1406 -7.4924 16.1301 -0.0896 0.8479 -31.8759 -19.9820 
0.0000 93.1000 0.0000 -71.8283 -8.5873 176.0908 -70.9870 -0.2237 88.0134 101.0992 68.3410 -10.9117 1.1425 16.7882 3.6583 -145.3164 6.0698 -164.5579 -142.0903 40.1625 -180.2524 1.9280 -15.5930 -27.2671 -141.0546 -5.5794 -70.9021 8.1683 1.8274 -77.4205 0.5733 -0.0410 0.0044 0.5846 4.8768 24.1849 -49.8007 -22.6166 142.1254 10.4110 3.5400 110.1210 -0.0629 0.4301 1.3582 -50.9609 6.0926 118.9091 -1.4393 37.1967 0.8735 -3.3395 -7.8852 -1.8908 3.1443 -8.8078 -6.3709 -25.9418 -8.0885 90.5023 6.9475 62.1059 10.1519 -10.3952 12.5112 2.2071 2.9815 -31.5798 -23.5012 
0.0000 93.1000 0.0000 -72.1091 -11.4339 -179.0152 -70.9997 -0.4657 88.0008 98.1798 68.2031 -10.5610 1.0447 16.0294 4.7829 -143.1596 5.9224 -168.5507 -141.0313 39.6489 177.5302 0.3051 -16.0324 -31.0716 -142.8767 -2.7351 -77.6583 10.6433 2.0508 -77.0535 0.3298 -0.5810 0.3251 -0.3452 4.4981 27.2252 -49.0427 -23.1496 140.8168 10.6524 4.0615 111.8566 0.0729 0.7782 0.7083 -48.2280 8.8394 112.7100 -2.0163 40.1467 0.6896 -0.8849 -13.3839 -2.0985 2.0662 -6.1384 -1.1546 -28.2191 -11.6199 92.4915 4.8931 60.2140 2.1952 -13.8432 9.8077 1.4216 1.4652 -25.8618 -24.4233 
0.0000 93.1000 0.0000 -71.9901 -14.2642 -176.1039 -71.0015 0.0152 87.9995 93.9374 68.2085 -7.7949 2.1084 16.2702 4.9269 -142.1543 6.2985 -172.1577 -141.2879 40.1435 176.6084 -0.1412 -16.8722 -31.8634 -144.2731 1.1239 -83.6966 11.4427 2.8261 -75.1126 0.4482 -0.0477 -0.0941 -0.6513 4.7777 29.6503 -48.9544 -25.0703 140.1354 9.1623 3.7545 112.8333 -0.4073 0.2514 0.1183 -44.8351 11.7879 111.1420 -2.6887 44.2904 -2.5912 -0.1085 -15.7636 -2.5863 1.0020 -4.8838 1.1489 -30.8319 -17.5499 92.0906 3.0003 56.1943 -2.8535 -17.5164 11.4374 2.0727 2.0501 -22.6607 -26.5012 
0.0000 93.1000 0.0000 -71.1543 -16.3218 -174.1060 -71.0096 -0.2598 87.9957 93.9833 69.6312 -7.2014 1.6051 18.0550 2.4195 -142.2837 6.7258 -173.3882 -141.2795 41.0598 176.5730 -2.9388 -17.9275 -33.9852 -142.9997 3.9878 -86.7870 12.0566 3.0220 -73.1993 -0.5421 0.0789 0.1570 -2.3895 5.2430 32.0171 -47.0696 -25.9859 141.0639 8.8386 4.2837 113.9028 -0.2585 -0.0155 -0.6191 -41.2124 15.5011 110.2979 -3.9920 49.7746 -4.9526 -0.7807 -16.4513 -1.1362 1.2991 -6.0619 2.7629 -34.8812 -19.2038 93.0793 1.9304 51.1029 -3.9316 -16.2255 12.7426 1.0197 0.1194 -18.5802 -21.6400 
0.0000 93.1000 0.0000 -71.8845 -15.1605 -173.0807 -70.9919 -0.2294 88.0047 97.0608 70.8458 -7.8285 1.5452 20.0426 1.1412 -142.0331 6.8330 -171.2382 -144.3640 41.9599 -179.9591 -0.7410 -18.0971 -35.0515 -142.0304 4.9349 -86.7517 13.0330 4.0820 -73.2634 0.4896 -0.1382 -0.2775 -1.2602 5.7067 32.0854 -47.7998 -25.8733 141.9254 9.0831 4.3526 112.8935 -0.2870 0.1903 0.3402 -39.8283 17.7852 108.5763 -4.3283 52.2859 -5.6867 -0.8355 -16.7421 -2.3125 1.8683 -6.7956 5.0919 -38.8517 -18.4643 95.1878 2.0557 45.2837 4.2197 -13.5042 16.6462 1.6849 1.5930 -22.8519 -19.2612 
0.0000 93.1000 0.0000 -72.1860 -13.8408 -173.0339 -70.9943 0.1640 88.0037 96.0402 71.2274 -7.3269 1.4839 20.7082 0.3755 -142.1936 6.2221 -168.0542 -147.4090 41.7523 -177.2645 -1.5540 -18.6199 -36.6454 -141.9393 5.1748 -85.6863 13.7925 3.8144 -73.9511 0.0940 0.2016 -0.1073 -1.6526 6.1939 33.2982 -47.0049 -23.3078 143.0318 9.8325 3.9000 110.8249 -0.0297 -0.1967 -0.0538 -37.0564 18.8675 104.9647 -4.8777 55.0638 -4.1086 -0.3186 -17.9226 -2.1468 1.0426 -6.1862 6.8046 -40.9454 -18.1123 95.6534 2.8750 41.9263 10.0556 -9.9050 16.7763 0.9288 1.6920 -32.1177 -20.1930 
